<mxfile host="app.diagrams.net" modified="2023-06-06T01:53:00.653Z" agent="Mozilla/5.0 (Macintosh; Intel Mac OS X 10_15_7) AppleWebKit/537.36 (KHTML, like Gecko) Chrome/114.0.0.0 Safari/537.36" version="21.3.7" etag="w2JKrsbivmG5UPdEtEDc" type="github">
  <diagram name="PÃ¡gina-1" id="o8KK8isC8CfM6uw1GsMw">
    <mxGraphModel>
      <root>
        <mxCell id="0" />
        <mxCell id="1" parent="0" />
      </root>
    </mxGraphModel>
  </diagram>
</mxfile>
